<?xml version="1.0" encoding="utf-8"?>
<!-- Generator: Adobe Illustrator 23.0.5, SVG Export Plug-In . SVG Version: 6.00 Build 0)  -->
<svg version="1.1" id="Layer_1" xmlns="http://www.w3.org/2000/svg" xmlns:xlink="http://www.w3.org/1999/xlink" x="0px" y="0px"
	 viewBox="0 0 991 310" style="enable-background:new 0 0 991 310;" xml:space="preserve">
<style type="text/css">
	.st0{fill:#413475;}
</style>
<path class="st0" d="M0,310.1C0,207,0,103.9,0,0.8c216.5,0,433,0,649.5,0c-0.7,5.7-1.1,11.4-2,17.1c-3.9,25.1-11,49.1-23.8,71.3
	c-13.5,23.4-31.9,41.7-57.6,52.6c-6.4,2.7-12.7,5.5-18.8,8.7c-33.4,17.6-61,41.3-80.1,73.6c-12.4,21-19.5,43.5-18.8,68
	c0.2,5.9,1.1,11.8,1.7,17.9c-1,0-2.1,0-3.3,0c-147.7,0-295.4,0-443.2,0C2.5,310,1.2,310,0,310.1z"/>
</svg>
