<?xml version="1.0" encoding="utf-8"?>
<!-- Generator: Adobe Illustrator 23.0.5, SVG Export Plug-In . SVG Version: 6.00 Build 0)  -->
<svg version="1.1" id="Layer_1" xmlns="http://www.w3.org/2000/svg" xmlns:xlink="http://www.w3.org/1999/xlink" x="0px" y="0px"
	 viewBox="0 0 120 110" style="enable-background:new 0 0 120 110;" xml:space="preserve">
<style type="text/css">
	.st0{clip-path:url(#SVGID_2_);}
	.st1{fill:#DA258B;}
	.st2{fill:#FFFFFF;}
	.st3{fill:#00D6D4;}
</style>
<image style="display:none;overflow:visible;" width="124" height="143" xlink:href="flower-1.png"  transform="matrix(0.9666 0 0 0.9666 7.159515e-02 0.5593)">
</image>
<g>
	<defs>
		<rect id="SVGID_1_" x="0.1" width="119.9" height="110"/>
	</defs>
	<clipPath id="SVGID_2_">
		<use xlink:href="#SVGID_1_"  style="overflow:visible;"/>
	</clipPath>
	<g class="st0">
		<path class="st1" d="M-2.6-11.3c-7.6,49.5,7.9,93.9,39.7,112c7,4,18.4,8.7,34.8,9c2.7-4.7,6.6-12.8,7.3-23.3
			c0.9-14.1-4.4-24.7-7.5-30.8C54.7,21.9,2.7-8.2-2.6-11.3"/>
		<path class="st2" d="M64.4,101.7c-12.7-17.4-24.5-35.4-35.4-54C18.7,30.4,9.3,12.6,0.8-5.5c-4.9-10.4-9.3-21.1-13.2-32
			c-0.2-0.6,0.7-0.8,0.9-0.2c6.7,19,15.3,37.2,24.6,55C22.9,36,33.6,54.3,45.1,72c6.4,9.9,13.1,19.6,20.1,29.2
			C65.5,101.7,64.7,102.2,64.4,101.7"/>
		<path class="st2" d="M53.4,99.8c1.2-4,1.3-8.3,0.3-12.4c-0.1-0.6,0.8-0.8,0.9-0.2c1,4.3,1,8.7-0.3,12.9
			C54.1,100.6,53.2,100.4,53.4,99.8"/>
		<path class="st2" d="M37.7,93.4c1.2-4.2,2.5-8.5,3.5-12.8c0.8-3.5,1.1-7.1,1-10.7c0-0.6,0.9-0.6,1,0c0.1,3.6-0.2,7.3-1,10.8
			c-1,4.3-2.3,8.6-3.6,12.9C38.5,94.3,37.5,94,37.7,93.4"/>
		<path class="st2" d="M24.4,83.9c5.5-8.4,8.6-18.1,8.9-28.1c0-0.6,1-0.6,1,0c-0.3,10.2-3.4,20.1-9,28.6
			C24.9,84.8,24.1,84.4,24.4,83.9"/>
		<path class="st2" d="M14.5,68c4.6-9.5,7.4-19.7,8.3-30.2c0.1-0.6,1-0.6,1,0c-0.9,10.6-3.8,21-8.5,30.6C15.1,69,14.3,68.5,14.5,68"
			/>
		<path class="st2" d="M5.3,45.2c4-6.8,7.2-14,9.7-21.5c0.2-0.6,1.1-0.3,0.9,0.2c-2.5,7.6-5.7,14.8-9.8,21.7
			C5.8,46.2,5,45.7,5.3,45.2"/>
		<path class="st2" d="M2.6,27c3.1-4.2,5.6-8.9,7.3-13.9c0.2-0.6,1.1-0.3,0.9,0.2c-1.7,5.1-4.2,9.8-7.4,14.1
			C3.1,27.9,2.3,27.5,2.6,27"/>
		<path class="st2" d="M73.4,91.2c-7.4-0.8-14.6-3.1-21-6.9c-0.5-0.3-0.1-1.1,0.5-0.8c6.3,3.7,13.3,6,20.6,6.8
			C74,90.3,74,91.3,73.4,91.2"/>
		<path class="st2" d="M70.2,75.5c-10.1,0.4-20.2-2.2-28.8-7.3c-0.5-0.3-0.1-1.1,0.5-0.8c8.6,5,18.5,7.5,28.4,7.2
			C70.9,74.5,70.9,75.5,70.2,75.5"/>
		<path class="st2" d="M64.5,60.2c-10.7,0.7-21.4-1-31.3-5.1c-0.6-0.2-0.1-1.1,0.5-0.8c9.7,4,20.3,5.7,30.8,5
			C65.1,59.2,65.1,60.2,64.5,60.2"/>
		<path class="st2" d="M51.3,42.7c-10.6-0.4-20.9-3.4-30.1-8.6c-0.5-0.3-0.1-1.1,0.5-0.8c9.1,5.1,19.2,8,29.7,8.5
			C51.9,41.7,51.9,42.7,51.3,42.7"/>
		<path class="st2" d="M35.2,24.2c-6.6,0.7-13.6,1.3-19.8-1.6c-0.6-0.3-0.1-1.1,0.5-0.8c6.1,2.7,12.9,2.1,19.3,1.4
			C35.8,23.2,35.8,24.2,35.2,24.2"/>
		<path class="st2" d="M25.8,15.6c-5.2,0-10.3-0.8-15.2-2.5C10,13,10.2,12,10.8,12.2c4.8,1.6,9.9,2.5,15,2.4
			C26.4,14.7,26.4,15.6,25.8,15.6"/>
		<path class="st3" d="M7.7-26.1c12.6,41.8,41.5,71,73.2,73.3c7,0.5,17.7,0,30.8-6c0.4-4.7,0.4-12.5-3-21.1
			C104.2,8.7,96.1,2.3,91.3-1.3C65.3-21.5,13-25.7,7.7-26.1"/>
		<path class="st2" d="M-7.5-40.8c0.4,0,0.7-0.1,1.1-0.1c0.5,0.5,1,1,1.6,1.5c4.9,4.7,9.9,9.1,15,13.4c5.4,4.6,11,9,16.7,13.4
			c0.3,0.2,0.6,0.4,0.9,0.7c1,0.8,2,1.5,3,2.3c1.2,0.9,2.4,1.8,3.6,2.7c0.3,0.2,0.6,0.5,0.9,0.7c2.8,2,5.5,4,8.3,6
			c0.4,0.3,0.8,0.6,1.3,0.9c5.4,3.8,10.8,7.5,16.3,11.1c0.4,0.3,0.8,0.5,1.1,0.7c3.4,2.2,6.8,4.4,10.2,6.5c0.5,0.3,1,0.6,1.5,0.9
			c0.8,0.5,1.6,1,2.4,1.5c3.4,2.1,6.8,4.1,10.3,6.1c0.5,0.3,1.1,0.6,1.6,0.9c4.9,2.9,9.9,5.7,14.9,8.4c0.5,0.3,0,0.9-0.5,0.7
			c-4.2-2.3-8.4-4.6-12.5-7c-0.4-0.2-0.8-0.5-1.2-0.7c-4.9-2.8-9.7-5.7-14.4-8.6c-0.4-0.2-0.7-0.5-1.1-0.7c-0.4-0.2-0.8-0.5-1.2-0.7
			c-0.2-0.1-0.3-0.2-0.5-0.3c-3.2-2-6.5-4.1-9.7-6.2c-0.3-0.2-0.7-0.4-1-0.7c0,0-0.1-0.1-0.1-0.1c-0.2-0.1-0.3-0.2-0.5-0.3
			c-2-1.3-3.9-2.6-5.8-3.9c-2.5-1.7-5-3.4-7.4-5.1c-0.3-0.2-0.7-0.5-1-0.7c-1-0.7-1.9-1.3-2.9-2c-0.1,0-0.1-0.1-0.2-0.2l0,0
			c-2.5-1.8-5-3.6-7.5-5.5c-0.2-0.2-0.5-0.4-0.7-0.5c-2.4-1.8-4.8-3.6-7.2-5.4c-0.3-0.2-0.6-0.5-0.9-0.7c-4.8-3.7-9.5-7.4-14.2-11.3
			c-1.3-1-2.5-2.1-3.8-3.2c-5-4.2-9.9-8.6-14.6-13.2C-6.4-39.8-6.9-40.3-7.5-40.8"/>
		<path class="st2" d="M93.5,40.3c-0.6-3.6-2.1-7-4.4-9.9c-0.3-0.4,0.3-1,0.6-0.5c2.4,3,4,6.5,4.6,10.2
			C94.4,40.7,93.5,40.9,93.5,40.3"/>
		<path class="st2" d="M78.7,41.2c-0.6-3.8-1.2-7.6-2-11.4c-0.7-3.1-1.8-6-3.2-8.8c-0.2-0.5,0.5-0.8,0.8-0.4
			c1.4,2.8,2.6,5.8,3.3,8.9c0.8,3.8,1.4,7.6,2,11.5C79.6,41.6,78.8,41.7,78.7,41.2"/>
		<path class="st2" d="M64.7,38.6c1.2-8.6-0.1-17.5-3.6-25.5c-0.2-0.5,0.5-0.9,0.8-0.4c3.6,8.1,4.8,17.1,3.6,25.9
			C65.4,39.2,64.6,39.2,64.7,38.6"/>
		<path class="st2" d="M51,29.8C51,20.7,49.4,11.6,46.2,3C46,2.5,46.8,2.1,47,2.6c3.3,8.7,4.9,18,4.8,27.3
			C51.8,30.4,51,30.4,51,29.8"/>
		<path class="st2" d="M35.2,15.4c0.6-6.8,0.5-13.7-0.4-20.5c-0.1-0.5,0.8-0.7,0.8-0.2c0.9,6.9,1,13.8,0.4,20.7
			C35.9,16,35.1,15.9,35.2,15.4"/>
		<path class="st2" d="M26.2,2c0.9-4.5,1.1-9.1,0.6-13.7c-0.1-0.5,0.8-0.7,0.8-0.2c0.5,4.6,0.4,9.3-0.5,13.9
			C26.9,2.6,26.1,2.5,26.2,2"/>
		<path class="st2" d="M106,26.1c-6.1,2.2-12.7,3-19.2,2.5c-0.5,0-0.5-0.9,0.1-0.8c6.3,0.5,12.7-0.3,18.7-2.4
			C106.1,25.2,106.5,25.9,106,26.1"/>
		<path class="st2" d="M97.6,14.9c-7.8,4.1-16.7,5.8-25.4,5.1c-0.5,0-0.5-0.9,0.1-0.8c8.6,0.8,17.4-1,25-5
			C97.8,13.9,98.1,14.6,97.6,14.9"/>
		<path class="st2" d="M87.4,5c-8.1,4.6-17.2,7.2-26.5,7.7c-0.5,0-0.5-0.8,0.1-0.8c9.2-0.5,18.1-3.1,26.1-7.6
			C87.5,4,87.9,4.7,87.4,5"/>
		<path class="st2" d="M70.4-3.9c-8.5,3.6-17.7,5.1-26.9,4.5c-0.5,0-0.5-0.9,0.1-0.8C52.6,0.4,61.7-1.1,70-4.6
			C70.5-4.8,70.9-4.1,70.4-3.9"/>
		<path class="st2" d="M50.8-12.4c-5,3-10.2,6.1-16.2,6.2c-0.5,0-0.5-0.8,0.1-0.8c5.8-0.1,10.9-3.2,15.8-6.1
			C50.9-13.4,51.3-12.7,50.8-12.4"/>
		<path class="st2" d="M40.2-15.6c-4.1,1.9-8.4,3.2-12.9,3.7c-0.5,0.1-0.7-0.8-0.2-0.8c4.4-0.5,8.7-1.8,12.7-3.7
			C40.3-16.6,40.6-15.8,40.2-15.6"/>
	</g>
</g>
</svg>
