<?xml version="1.0" encoding="utf-8"?>
<!-- Generator: Adobe Illustrator 23.0.5, SVG Export Plug-In . SVG Version: 6.00 Build 0)  -->
<svg version="1.1" id="Layer_1" xmlns="http://www.w3.org/2000/svg" xmlns:xlink="http://www.w3.org/1999/xlink" x="0px" y="0px"
	 viewBox="0 0 25 25" style="enable-background:new 0 0 25 25;" xml:space="preserve">
<style type="text/css">
	.st0{display:none;}
	.st1{display:inline;fill-rule:evenodd;clip-rule:evenodd;fill:#FFFFFF;}
	.st2{fill:#FFFFFF;}
	.st3{fill:none;stroke:#FFFFFF;stroke-miterlimit:10;}
</style>
<g class="st0">
	<path class="st1" d="M15.3,18.8c-3.5-2.4-6.7-5.6-9.1-9.1c1.4-0.4,2.5-1.3,2.1-2.4L6.2,1.7C5.1-1.1-0.7,3.6,1.3,7.7
		c3.2,6.8,9.2,12.8,16,16.1c4.1,2,8.8-3.9,6-4.9l-5.5-2.1C16.6,16.3,15.7,17.4,15.3,18.8z"/>
</g>
<g>
	<path class="st2" d="M13,6.2c-3.2,0-5.8,2.6-5.8,5.8c0,1.2,0.4,2.4,1.1,3.4c0.1,0.2,0.2,0.4,0.1,0.6l-0.7,1.5l1.9-0.5
		c0.1,0,0.1,0,0.2,0c0.1,0,0.2,0,0.3,0.1c0.9,0.5,1.9,0.8,2.9,0.8c3.2,0,5.8-2.6,5.8-5.8S16.2,6.2,13,6.2z M16.5,14.2
		c-0.2,0.5-0.7,0.9-1.3,1c-0.5,0.1-0.9-0.1-1.4-0.2c-0.4-0.1-0.8-0.3-1.2-0.6c-0.8-0.5-1.4-1.1-2-1.8c-0.2-0.2-0.3-0.5-0.5-0.7
		c-0.2-0.3-0.3-0.6-0.4-1c0-0.1-0.1-0.3-0.1-0.5c0-0.5,0.2-1.1,0.6-1.4c0.2-0.2,0.6-0.3,0.9-0.1c0.3,0.2,0.5,0.6,0.6,0.9
		c0.1,0.2,0.2,0.5,0.2,0.8c0,0.3-0.3,0.5-0.4,0.7c-0.1,0.1-0.1,0.2,0,0.4c0.5,0.9,1.3,1.6,2.3,2c0.1,0.1,0.2,0,0.3-0.1
		c0.2-0.2,0.3-0.6,0.6-0.7c0.3-0.1,0.7,0.1,1,0.2c0.3,0.2,0.7,0.4,0.8,0.7C16.6,13.9,16.5,14,16.5,14.2z"/>
	<path class="st3" d="M12.5,0.9C6.1,0.9,0.9,6.1,0.9,12.5s5.2,11.6,11.6,11.6c6.4,0,11.6-5.2,11.6-11.6S18.9,0.9,12.5,0.9z M13,19
		c-1.2,0-2.3-0.3-3.3-0.8l-2.9,0.8c-0.1,0-0.1,0-0.2,0c-0.2,0-0.3-0.1-0.5-0.2C6,18.6,6,18.3,6.1,18.1l1.1-2.3C6.4,14.6,6,13.3,6,12
		c0-3.9,3.1-7,7-7c3.9,0,7,3.1,7,7S16.9,19,13,19z"/>
</g>
</svg>
